<?xml version="1.0" encoding="UTF-8" standalone="no"?>
<!-- Created with Inkscape (http://www.inkscape.org/) -->

<svg
   version="1.1"
   id="svg2"
   width="666.66669"
   height="666.66669"
   viewBox="0 0 666.66669 666.66669"
   sodipodi:docname="6518029.eps"
   xmlns:inkscape="http://www.inkscape.org/namespaces/inkscape"
   xmlns:sodipodi="http://sodipodi.sourceforge.net/DTD/sodipodi-0.dtd"
   xmlns="http://www.w3.org/2000/svg"
   xmlns:svg="http://www.w3.org/2000/svg">
  <defs
     id="defs6" />
  <sodipodi:namedview
     id="namedview4"
     pagecolor="#ffffff"
     bordercolor="#000000"
     borderopacity="0.25"
     inkscape:showpageshadow="2"
     inkscape:pageopacity="0.0"
     inkscape:pagecheckerboard="0"
     inkscape:deskcolor="#d1d1d1" />
  <g
     id="g8"
     inkscape:groupmode="layer"
     inkscape:label="ink_ext_XXXXXX"
     transform="matrix(1.3333333,0,0,-1.3333333,0,666.66667)">
    <g
       id="g10"
       transform="scale(0.1)">
      <path
         d="M 5000,0 H 0 V 5000 H 5000 V 0"
         style="fill:#7daadf;fill-opacity:1;fill-rule:nonzero;stroke:none"
         id="path12" />
      <path
         d="m 4127.56,2983.23 -234.68,-135.5 -234.68,135.5 v 270.98 l 234.68,135.49 234.68,-135.49 z"
         style="fill:none;stroke:#2153aa;stroke-width:25;stroke-linecap:round;stroke-linejoin:round;stroke-miterlimit:10;stroke-dasharray:none;stroke-opacity:1"
         id="path14" />
      <path
         d="m 4127.56,3254.21 234.67,135.49"
         style="fill:none;stroke:#2153aa;stroke-width:25;stroke-linecap:round;stroke-linejoin:round;stroke-miterlimit:10;stroke-dasharray:none;stroke-opacity:1"
         id="path16" />
      <path
         d="m 4362.23,2847.73 -234.67,135.5"
         style="fill:none;stroke:#2153aa;stroke-width:25;stroke-linecap:round;stroke-linejoin:round;stroke-miterlimit:10;stroke-dasharray:none;stroke-opacity:1"
         id="path18" />
      <path
         d="m 3668.96,2983.23 -234.67,-135.5"
         style="fill:none;stroke:#2153aa;stroke-width:25;stroke-linecap:round;stroke-linejoin:round;stroke-miterlimit:10;stroke-dasharray:none;stroke-opacity:1"
         id="path20" />
      <path
         d="m 3892.88,3642.71 v -235.4"
         style="fill:none;stroke:#2153aa;stroke-width:25;stroke-linecap:round;stroke-linejoin:round;stroke-miterlimit:10;stroke-dasharray:none;stroke-opacity:1"
         id="path22" />
      <path
         d="m 3934.19,3389.7 c 0,-22.82 -18.49,-41.31 -41.31,-41.31 -22.8,0 -41.3,18.49 -41.3,41.31 0,22.81 18.5,41.31 41.3,41.31 22.82,0 41.31,-18.5 41.31,-41.31"
         style="fill:#2153aa;fill-opacity:1;fill-rule:nonzero;stroke:none"
         id="path24" />
      <path
         d="m 3934.19,2847.73 c 0,-22.82 -18.49,-41.3 -41.31,-41.3 -22.8,0 -41.3,18.48 -41.3,41.3 0,22.82 18.5,41.3 41.3,41.3 22.82,0 41.31,-18.48 41.31,-41.3"
         style="fill:#2153aa;fill-opacity:1;fill-rule:nonzero;stroke:none"
         id="path26" />
      <path
         d="m 4168.87,3251.38 c 0,-22.81 -18.49,-41.31 -41.31,-41.31 -22.81,0 -41.3,18.5 -41.3,41.31 0,22.81 18.49,41.31 41.3,41.31 22.82,0 41.31,-18.5 41.31,-41.31"
         style="fill:#2153aa;fill-opacity:1;fill-rule:nonzero;stroke:none"
         id="path28" />
      <path
         d="m 4403.54,3389.7 c 0,-22.82 -18.5,-41.31 -41.31,-41.31 -22.81,0 -41.3,18.49 -41.3,41.31 0,22.81 18.49,41.31 41.3,41.31 22.81,0 41.31,-18.5 41.31,-41.31"
         style="fill:#2153aa;fill-opacity:1;fill-rule:nonzero;stroke:none"
         id="path30" />
      <path
         d="m 3934.2,3642.72 c 0,-22.82 -18.5,-41.32 -41.32,-41.32 -22.8,0 -41.3,18.5 -41.3,41.32 0,22.81 18.5,41.3 41.3,41.3 22.82,0 41.32,-18.49 41.32,-41.3"
         style="fill:#2153aa;fill-opacity:1;fill-rule:nonzero;stroke:none"
         id="path32" />
      <path
         d="m 4403.54,2847.73 c 0,-22.82 -18.5,-41.3 -41.31,-41.3 -22.81,0 -41.3,18.48 -41.3,41.3 0,22.82 18.49,41.3 41.3,41.3 22.81,0 41.31,-18.48 41.31,-41.3"
         style="fill:#2153aa;fill-opacity:1;fill-rule:nonzero;stroke:none"
         id="path34" />
      <path
         d="m 3475.58,2847.73 c 0,-22.82 -18.5,-41.3 -41.31,-41.3 -22.81,0 -41.31,18.48 -41.31,41.3 0,22.82 18.5,41.3 41.31,41.3 22.81,0 41.31,-18.48 41.31,-41.3"
         style="fill:#2153aa;fill-opacity:1;fill-rule:nonzero;stroke:none"
         id="path36" />
      <path
         d="m 4168.87,2987.47 c 0,-22.81 -18.49,-41.31 -41.31,-41.31 -22.81,0 -41.3,18.5 -41.3,41.31 0,22.81 18.49,41.3 41.3,41.3 22.82,0 41.31,-18.49 41.31,-41.3"
         style="fill:#2153aa;fill-opacity:1;fill-rule:nonzero;stroke:none"
         id="path38" />
      <path
         d="m 3699.51,3251.38 c 0,-22.81 -18.48,-41.31 -41.31,-41.31 -22.8,0 -41.3,18.5 -41.3,41.31 0,22.81 18.5,41.31 41.3,41.31 22.83,0 41.31,-18.5 41.31,-41.31"
         style="fill:#2153aa;fill-opacity:1;fill-rule:nonzero;stroke:none"
         id="path40" />
      <path
         d="m 3699.51,2987.47 c 0,-22.81 -18.48,-41.31 -41.31,-41.31 -22.8,0 -41.3,18.5 -41.3,41.31 0,22.81 18.5,41.3 41.3,41.3 22.83,0 41.31,-18.49 41.31,-41.3"
         style="fill:#2153aa;fill-opacity:1;fill-rule:nonzero;stroke:none"
         id="path42" />
      <path
         d="m 1331.05,1222.71 -234.67,-135.5 -234.681,135.5 v 270.98 l 234.681,135.49 234.67,-135.49 z"
         style="fill:none;stroke:#2153aa;stroke-width:25;stroke-linecap:round;stroke-linejoin:round;stroke-miterlimit:10;stroke-dasharray:none;stroke-opacity:1"
         id="path44" />
      <path
         d="m 1331.05,1493.69 234.67,135.49"
         style="fill:none;stroke:#2153aa;stroke-width:25;stroke-linecap:round;stroke-linejoin:round;stroke-miterlimit:10;stroke-dasharray:none;stroke-opacity:1"
         id="path46" />
      <path
         d="m 1565.72,1087.21 -234.67,135.5"
         style="fill:none;stroke:#2153aa;stroke-width:25;stroke-linecap:round;stroke-linejoin:round;stroke-miterlimit:10;stroke-dasharray:none;stroke-opacity:1"
         id="path48" />
      <path
         d="m 872.461,1222.71 -234.68,-135.5"
         style="fill:none;stroke:#2153aa;stroke-width:25;stroke-linecap:round;stroke-linejoin:round;stroke-miterlimit:10;stroke-dasharray:none;stroke-opacity:1"
         id="path50" />
      <path
         d="M 1096.38,1882.2 V 1646.8"
         style="fill:none;stroke:#2153aa;stroke-width:25;stroke-linecap:round;stroke-linejoin:round;stroke-miterlimit:10;stroke-dasharray:none;stroke-opacity:1"
         id="path52" />
      <path
         d="m 1137.69,1629.18 c 0,-22.81 -18.49,-41.31 -41.31,-41.31 -22.81,0 -41.3,18.5 -41.3,41.31 0,22.81 18.49,41.31 41.3,41.31 22.82,0 41.31,-18.5 41.31,-41.31"
         style="fill:#2153aa;fill-opacity:1;fill-rule:nonzero;stroke:none"
         id="path54" />
      <path
         d="m 1137.69,1087.21 c 0,-22.82 -18.49,-41.3 -41.31,-41.3 -22.81,0 -41.3,18.48 -41.3,41.3 0,22.82 18.49,41.31 41.3,41.31 22.82,0 41.31,-18.49 41.31,-41.31"
         style="fill:#2153aa;fill-opacity:1;fill-rule:nonzero;stroke:none"
         id="path56" />
      <path
         d="m 1372.36,1490.86 c 0,-22.81 -18.48,-41.31 -41.31,-41.31 -22.81,0 -41.29,18.5 -41.29,41.31 0,22.81 18.48,41.31 41.29,41.31 22.83,0 41.31,-18.5 41.31,-41.31"
         style="fill:#2153aa;fill-opacity:1;fill-rule:nonzero;stroke:none"
         id="path58" />
      <path
         d="m 1607.04,1629.18 c 0,-22.81 -18.5,-41.31 -41.32,-41.31 -22.8,0 -41.3,18.5 -41.3,41.31 0,22.81 18.5,41.31 41.3,41.31 22.82,0 41.32,-18.5 41.32,-41.31"
         style="fill:#2153aa;fill-opacity:1;fill-rule:nonzero;stroke:none"
         id="path60" />
      <path
         d="m 1137.7,1882.21 c 0,-22.83 -18.5,-41.33 -41.32,-41.33 -22.81,0 -41.3,18.5 -41.3,41.33 0,22.8 18.49,41.3 41.3,41.3 22.82,0 41.32,-18.5 41.32,-41.3"
         style="fill:#2153aa;fill-opacity:1;fill-rule:nonzero;stroke:none"
         id="path62" />
      <path
         d="m 1607.04,1087.21 c 0,-22.82 -18.5,-41.3 -41.32,-41.3 -22.8,0 -41.3,18.48 -41.3,41.3 0,22.82 18.5,41.31 41.3,41.31 22.82,0 41.32,-18.49 41.32,-41.31"
         style="fill:#2153aa;fill-opacity:1;fill-rule:nonzero;stroke:none"
         id="path64" />
      <path
         d="m 679.07,1087.21 c 0,-22.82 -18.496,-41.3 -41.304,-41.3 -22.817,0 -41.313,18.48 -41.313,41.3 0,22.82 18.496,41.31 41.313,41.31 22.808,0 41.304,-18.49 41.304,-41.31"
         style="fill:#2153aa;fill-opacity:1;fill-rule:nonzero;stroke:none"
         id="path66" />
      <path
         d="m 1372.36,1226.95 c 0,-22.81 -18.48,-41.31 -41.31,-41.31 -22.81,0 -41.29,18.5 -41.29,41.31 0,22.82 18.48,41.3 41.29,41.3 22.83,0 41.31,-18.48 41.31,-41.3"
         style="fill:#2153aa;fill-opacity:1;fill-rule:nonzero;stroke:none"
         id="path68" />
      <path
         d="m 903.008,1490.86 c 0,-22.81 -18.488,-41.31 -41.309,-41.31 -22.804,0 -41.301,18.5 -41.301,41.31 0,22.81 18.497,41.31 41.301,41.31 22.821,0 41.309,-18.5 41.309,-41.31"
         style="fill:#2153aa;fill-opacity:1;fill-rule:nonzero;stroke:none"
         id="path70" />
      <path
         d="m 903.008,1226.95 c 0,-22.81 -18.488,-41.31 -41.309,-41.31 -22.804,0 -41.301,18.5 -41.301,41.31 0,22.82 18.497,41.3 41.301,41.3 22.821,0 41.309,-18.48 41.309,-41.3"
         style="fill:#2153aa;fill-opacity:1;fill-rule:nonzero;stroke:none"
         id="path72" />
      <path
         d="m 3507.37,3288.06 c 12.85,53.38 -14.8,103.98 -65.15,115.71 -25.96,6.06 -53.15,0.59 -76.45,-13.08 1.02,9.69 1.72,19.47 1.72,29.51 0,120.82 -75.57,218.77 -168.81,218.77 -73.69,0 -136.17,-61.28 -159.22,-146.58 -29.86,30.39 -68.04,46.6 -105,40.45 -65.04,-10.84 -101.72,-86.9 -82.54,-170.33 -12.55,6.33 -26.54,9.97 -41.34,9.97 -47.54,0 -87.02,-36.41 -95.34,-84.42 h 792.13"
         style="fill:#96c8ed;fill-opacity:1;fill-rule:nonzero;stroke:none"
         id="path74" />
      <path
         d="m 1402.28,2197.84 c 12.85,53.38 -14.81,103.98 -65.16,115.71 -25.96,6.06 -53.15,0.59 -76.45,-13.08 1.02,9.69 1.72,19.47 1.72,29.51 0,120.82 -75.56,218.77 -168.81,218.77 -73.69,0 -136.17,-61.28 -159.217,-146.58 -29.859,30.39 -68.047,46.6 -105,40.45 -65.039,-10.84 -101.718,-86.9 -82.539,-170.33 -12.554,6.33 -26.543,9.97 -41.344,9.97 -47.542,0 -87.011,-36.41 -95.335,-84.42 h 792.135"
         style="fill:#96c8ed;fill-opacity:1;fill-rule:nonzero;stroke:none"
         id="path76" />
      <path
         d="m 4281.46,1040.76 c 12.86,53.38 -14.8,103.98 -65.15,115.71 -25.96,6.06 -53.15,0.59 -76.45,-13.08 1.02,9.69 1.72,19.47 1.72,29.51 0,120.82 -75.56,218.77 -168.81,218.77 -73.69,0 -136.17,-61.28 -159.22,-146.58 -29.86,30.39 -68.04,46.6 -105,40.45 -65.03,-10.84 -101.71,-86.9 -82.53,-170.33 -12.56,6.33 -26.55,9.97 -41.35,9.97 -47.54,0 -87.01,-36.41 -95.33,-84.42 h 792.12"
         style="fill:#96c8ed;fill-opacity:1;fill-rule:nonzero;stroke:none"
         id="path78" />
      <path
         d="m 2265.72,3828.74 c 12.85,53.37 -14.81,103.97 -65.16,115.71 -25.96,6.05 -53.15,0.58 -76.45,-13.09 1.02,9.69 1.72,19.47 1.72,29.51 0,120.83 -75.57,218.77 -168.81,218.77 -73.69,0 -136.17,-61.28 -159.22,-146.58 -29.86,30.39 -68.04,46.6 -104.99,40.45 -65.04,-10.84 -101.72,-86.89 -82.55,-170.32 -12.55,6.33 -26.53,9.96 -41.34,9.96 -47.53,0 -87.01,-36.41 -95.34,-84.41 h 792.14"
         style="fill:#96c8ed;fill-opacity:1;fill-rule:nonzero;stroke:none"
         id="path80" />
      <path
         d="m 3638.89,3717.53 c 0,-34.54 -28.01,-62.53 -62.54,-62.53 -34.55,0 -62.54,27.99 -62.54,62.53 0,34.55 27.99,62.54 62.54,62.54 34.53,0 62.54,-27.99 62.54,-62.54"
         style="fill:#96c8ed;fill-opacity:1;fill-rule:nonzero;stroke:none"
         id="path82" />
      <path
         d="m 4323.75,1677.95 c 0,-34.55 -28.01,-62.54 -62.54,-62.54 -34.55,0 -62.54,27.99 -62.54,62.54 0,34.53 27.99,62.53 62.54,62.53 34.53,0 62.54,-28 62.54,-62.53"
         style="fill:#96c8ed;fill-opacity:1;fill-rule:nonzero;stroke:none"
         id="path84" />
      <path
         d="m 801.344,3087.62 c 0,-34.54 -28.008,-62.54 -62.539,-62.54 -34.551,0 -62.539,28 -62.539,62.54 0,34.54 27.988,62.54 62.539,62.54 34.531,0 62.539,-28 62.539,-62.54"
         style="fill:#96c8ed;fill-opacity:1;fill-rule:nonzero;stroke:none"
         id="path86" />
      <path
         d="m 801.34,1762.85 c 0,-34.54 -28.012,-62.54 -62.539,-62.54 -34.555,0 -62.539,28 -62.539,62.54 0,34.54 27.984,62.54 62.539,62.54 34.527,0 62.539,-28 62.539,-62.54"
         style="fill:#96c8ed;fill-opacity:1;fill-rule:nonzero;stroke:none"
         id="path88" />
      <path
         d="m 1781.11,3525.01 c 0,-22.01 -17.85,-39.86 -39.86,-39.86 -22.03,0 -39.86,17.85 -39.86,39.86 0,22.03 17.83,39.87 39.86,39.87 22.01,0 39.86,-17.84 39.86,-39.87"
         style="fill:#96c8ed;fill-opacity:1;fill-rule:nonzero;stroke:none"
         id="path90" />
      <path
         d="m 1007.78,2716.5 c 0,-22.01 -17.854,-39.87 -39.866,-39.87 -22.031,0 -39.863,17.86 -39.863,39.87 0,22.02 17.832,39.86 39.863,39.86 22.012,0 39.866,-17.84 39.866,-39.86"
         style="fill:#96c8ed;fill-opacity:1;fill-rule:nonzero;stroke:none"
         id="path92" />
      <path
         d="m 1874.5,1141.86 c 0,-22.02 -17.85,-39.88 -39.87,-39.88 -22.03,0 -39.86,17.86 -39.86,39.88 0,22.02 17.83,39.86 39.86,39.86 22.02,0 39.87,-17.84 39.87,-39.86"
         style="fill:#96c8ed;fill-opacity:1;fill-rule:nonzero;stroke:none"
         id="path94" />
      <path
         d="m 3313.95,1066.55 c 0,-22.01 -17.86,-39.86 -39.87,-39.86 -22.03,0 -39.86,17.85 -39.86,39.86 0,22.02 17.83,39.87 39.86,39.87 22.01,0 39.87,-17.85 39.87,-39.87"
         style="fill:#96c8ed;fill-opacity:1;fill-rule:nonzero;stroke:none"
         id="path96" />
      <path
         d="m 4143.87,2433.42 c 0,-22.01 -17.85,-39.88 -39.87,-39.88 -22.03,0 -39.86,17.87 -39.86,39.88 0,22.02 17.83,39.86 39.86,39.86 22.02,0 39.87,-17.84 39.87,-39.86"
         style="fill:#96c8ed;fill-opacity:1;fill-rule:nonzero;stroke:none"
         id="path98" />
      <path
         d="m 2899.08,3964.33 c 0,-22.02 -17.85,-39.88 -39.86,-39.88 -22.03,0 -39.86,17.86 -39.86,39.88 0,22.02 17.83,39.86 39.86,39.86 22.01,0 39.86,-17.84 39.86,-39.86"
         style="fill:#96c8ed;fill-opacity:1;fill-rule:nonzero;stroke:none"
         id="path100" />
      <path
         d="m 4413.87,814.742 c 0,-48.722 -34.49,-88.203 -77.04,-88.203 H 663.176 c -42.539,0 -77.043,39.481 -77.043,88.203 v 0 c 0,48.719 34.504,88.188 77.043,88.188 H 4336.83 c 42.55,0 77.04,-39.469 77.04,-88.188 v 0"
         style="fill:#6897d6;fill-opacity:1;fill-rule:nonzero;stroke:none"
         id="path102" />
      <path
         d="m 3886.95,1847.11 c -64.33,0 -116.52,52.18 -116.52,116.52 0,64.37 52.19,116.55 116.52,116.55 64.38,0 116.53,-52.18 116.53,-116.55 0,-64.34 -52.15,-116.52 -116.53,-116.52 z m 321.31,51.19 v 131.23 h -84.49 c -5.43,19.56 -13.2,38.14 -23.05,55.38 l 59.83,59.81 -92.8,92.78 -59.88,-59.85 c -17.24,9.76 -35.78,17.5 -55.29,22.88 v 84.69 h -131.23 v -84.69 c -19.51,-5.38 -38.05,-13.12 -55.31,-22.88 l -59.89,59.85 -92.77,-92.78 59.8,-59.81 c -9.82,-17.24 -17.59,-35.82 -23.02,-55.38 h -84.5 V 1898.3 H 3650 c 5.37,-19.63 13.14,-38.25 22.97,-55.59 l -59.59,-59.57 92.77,-92.8 59.51,59.5 c 17.37,-9.86 36.02,-17.67 55.69,-23.1 v -84.08 h 131.23 v 84.08 c 19.67,5.43 38.32,13.24 55.68,23.1 l 59.49,-59.5 92.8,92.8 -59.57,59.57 c 9.8,17.34 17.57,35.96 22.97,55.59 h 84.31"
         style="fill:#1c2f46;fill-opacity:1;fill-rule:nonzero;stroke:none"
         id="path104" />
      <path
         d="m 3313.94,3772.23 c -64.34,0 -116.53,52.17 -116.53,116.52 0,64.37 52.19,116.54 116.53,116.54 64.37,0 116.52,-52.17 116.52,-116.54 0,-64.35 -52.15,-116.52 -116.52,-116.52 z m 321.3,51.19 v 131.23 h -84.49 c -5.43,19.56 -13.2,38.12 -23.04,55.38 l 59.82,59.79 -92.79,92.8 -59.89,-59.87 c -17.24,9.77 -35.78,17.52 -55.29,22.89 v 84.7 h -131.23 v -84.7 c -19.51,-5.37 -38.05,-13.12 -55.31,-22.89 l -59.89,59.87 -92.77,-92.8 59.81,-59.79 c -9.83,-17.26 -17.6,-35.82 -23.03,-55.38 h -84.49 v -131.23 h 84.33 c 5.37,-19.63 13.15,-38.25 22.97,-55.59 l -59.59,-59.57 92.77,-92.8 59.52,59.5 c 17.36,-9.86 36.01,-17.67 55.68,-23.1 v -84.09 h 131.23 v 84.09 c 19.67,5.43 38.32,13.24 55.68,23.1 l 59.5,-59.5 92.79,92.8 -59.57,59.57 c 9.8,17.34 17.58,35.96 22.97,55.59 h 84.31"
         style="fill:#1c2f46;fill-opacity:1;fill-rule:nonzero;stroke:none"
         id="path106" />
      <path
         d="m 1112.91,2507.64 c -64.35,0 -116.523,52.17 -116.523,116.52 0,64.37 52.173,116.53 116.523,116.53 64.38,0 116.52,-52.16 116.52,-116.53 0,-64.35 -52.14,-116.52 -116.52,-116.52 z m 321.31,51.19 v 131.23 h -84.5 c -5.42,19.56 -13.21,38.12 -23.04,55.38 l 59.81,59.79 -92.79,92.8 -59.87,-59.87 c -17.25,9.77 -35.78,17.51 -55.29,22.88 v 84.71 H 1047.3 v -84.71 c -19.51,-5.37 -38.05,-13.11 -55.308,-22.88 l -59.883,59.87 -92.773,-92.8 59.797,-59.79 c -9.824,-17.26 -17.59,-35.82 -23.02,-55.38 h -84.492 v -131.23 h 84.324 c 5.371,-19.63 13.149,-38.25 22.973,-55.59 l -59.582,-59.57 92.773,-92.8 59.512,59.5 c 17.349,-9.86 36.019,-17.67 55.679,-23.1 v -84.09 h 131.24 v 84.09 c 19.65,5.43 38.31,13.24 55.67,23.1 l 59.49,-59.5 92.79,92.8 -59.57,59.57 c 9.81,17.34 17.58,35.96 22.97,55.59 h 84.33"
         style="fill:#1c2f46;fill-opacity:1;fill-rule:nonzero;stroke:none"
         id="path108" />
      <path
         d="M 980.188,3344.23 H 832.191 v 198.92 h 147.997 v -198.92"
         style="fill:#ee256e;fill-opacity:1;fill-rule:nonzero;stroke:none"
         id="path110" />
      <path
         d="m 1200.85,3344.23 h -147.99 v 298.57 h 147.99 v -298.57"
         style="fill:#ee256e;fill-opacity:1;fill-rule:nonzero;stroke:none"
         id="path112" />
      <path
         d="m 1413.64,3344.23 h -148.01 v 403.3 h 148.01 v -403.3"
         style="fill:#ee256e;fill-opacity:1;fill-rule:nonzero;stroke:none"
         id="path114" />
      <path
         d="m 1404.09,4001.2 -114.23,-16.41 31.51,-31.35 -168.63,-138.81 -85.13,75.36 -235.419,-194.26 20.215,-22.93 214.474,176.99 85.12,-75.34 191.13,157.33 37.59,-37.4 23.37,106.82"
         style="fill:#fcca1e;fill-opacity:1;fill-rule:nonzero;stroke:none"
         id="path116" />
      <path
         d="m 885.121,3684.68 c 0,-23.73 -19.238,-42.97 -42.969,-42.97 -23.73,0 -42.972,19.24 -42.972,42.97 0,23.73 19.242,42.98 42.972,42.98 23.731,0 42.969,-19.25 42.969,-42.98"
         style="fill:#fcca1e;fill-opacity:1;fill-rule:nonzero;stroke:none"
         id="path118" />
      <path
         d="m 1109.19,3864.25 c 0,-23.74 -19.23,-42.98 -42.97,-42.98 -23.73,0 -42.97,19.24 -42.97,42.98 0,23.73 19.24,42.97 42.97,42.97 23.74,0 42.97,-19.24 42.97,-42.97"
         style="fill:#fcca1e;fill-opacity:1;fill-rule:nonzero;stroke:none"
         id="path120" />
      <path
         d="m 1197.17,3800.94 c 0,-23.73 -19.23,-42.97 -42.97,-42.97 -23.73,0 -42.97,19.24 -42.97,42.97 0,23.73 19.24,42.97 42.97,42.97 23.74,0 42.97,-19.24 42.97,-42.97"
         style="fill:#fcca1e;fill-opacity:1;fill-rule:nonzero;stroke:none"
         id="path122" />
      <path
         d="m 2021.4,989.949 h 952.82 V 1233.18 H 2021.4 V 989.949"
         style="fill:#ffffff;fill-opacity:1;fill-rule:nonzero;stroke:none"
         id="path124" />
      <path
         d="m 2021.4,1151.76 h 952.82 v 81.42 H 2021.4 v -81.42"
         style="fill:#c6eced;fill-opacity:1;fill-rule:nonzero;stroke:none"
         id="path126" />
      <path
         d="m 2012.92,989.949 h 969.74 c 113.75,0 205.93,-78.437 205.93,-175.207 H 1807.04 c 0,96.77 92.17,175.207 205.88,175.207"
         style="fill:#c6eced;fill-opacity:1;fill-rule:nonzero;stroke:none"
         id="path128" />
      <path
         d="m 1161.78,1233.18 h 2676.4 c 27,0 48.79,21.84 48.79,48.78 v 1819.46 c 0,26.92 -21.79,48.74 -48.79,48.74 h -2676.4 c -26.94,0 -48.75,-21.82 -48.75,-48.74 V 1281.96 c 0,-26.94 21.81,-48.78 48.75,-48.78"
         style="fill:#ffffff;fill-opacity:1;fill-rule:nonzero;stroke:none"
         id="path130" />
      <path
         d="m 1190.58,1537.35 h 2618.85 c 26.9,0 48.75,21.8 48.75,48.74 v 1491.19 c 0,26.93 -21.85,48.75 -48.75,48.75 H 1190.58 c -26.92,0 -48.74,-21.82 -48.74,-48.75 V 1586.09 c 0,-26.94 21.82,-48.74 48.74,-48.74"
         style="fill:#1c2f46;fill-opacity:1;fill-rule:nonzero;stroke:none"
         id="path132" />
      <path
         d="m 1300.82,1680.6 h 2398.34 c 23.48,0 42.56,19.04 42.56,42.51 v 1217.14 c 0,23.5 -19.08,42.55 -42.56,42.55 H 1300.82 c -23.49,0 -42.51,-19.05 -42.51,-42.55 V 1723.11 c 0,-23.47 19.02,-42.51 42.51,-42.51"
         style="fill:#5b73c1;fill-opacity:1;fill-rule:nonzero;stroke:none"
         id="path134" />
      <path
         d="m 2564.47,1389.98 c 0,-36.82 -29.84,-66.67 -66.67,-66.67 -36.81,0 -66.67,29.85 -66.67,66.67 0,36.82 29.86,66.67 66.67,66.67 36.83,0 66.67,-29.85 66.67,-66.67"
         style="fill:#c6eced;fill-opacity:1;fill-rule:nonzero;stroke:none"
         id="path136" />
      <g
         id="g138"
         transform="scale(10)">
        <text
           xml:space="preserve"
           transform="matrix(1,0,0,-1,136.773,176.286)"
           style="font-variant:normal;font-weight:normal;font-size:24.1436px;font-family:RobotoCondensed;-inkscape-font-specification:RobotoCondensed-Regular;writing-mode:lr-tb;fill:#839dd8;fill-opacity:1;fill-rule:nonzero;stroke:none"
           id="text148"><tspan
             x="0 11.926938 23.853876 35.755863 47.682804 59.609741 71.536682 83.430878 95.357819 107.28475 119.21169 131.10512 143.02312 154.94202 166.86095 178.77896 190.69786 202.61586 214.53477"
             y="0"
             sodipodi:role="line"
             id="tspan140">0101001101100110101</tspan><tspan
             x="0 11.926938 23.853876 35.755863 47.682804 59.609741 71.536682 83.430878 95.357819 107.28475 119.21169 131.10512 143.02312 154.94202 166.86095 178.77896 190.69786 202.61586 214.53477"
             y="-95.332001"
             sodipodi:role="line"
             id="tspan142">0101001101100110101</tspan><tspan
             x="0 11.926938 23.853876 35.755863 47.682804 59.609741 71.536682 83.430878 95.357819 107.28475 119.21169 131.10512 143.02312 154.94202 166.86095 178.77896 190.69786 202.61586 214.53477"
             y="-32.560902"
             sodipodi:role="line"
             id="tspan144">1101010101001101100</tspan><tspan
             x="0 11.926938 23.853876 35.755863 47.682804 59.609741 71.536682 83.430878 95.357819 107.28475 119.21169 131.10512 143.02312 154.94202 166.86095 178.77896 190.69786 202.61586 214.53477"
             y="-63.897202"
             sodipodi:role="line"
             id="tspan146">1010011001010101011</tspan></text>
      </g>
      <path
         d="m 3246.48,2886.47 c 0,-412.27 -334.21,-746.47 -746.49,-746.47 -412.27,0 -746.47,334.2 -746.47,746.47 0,412.28 334.2,746.48 746.47,746.48 412.28,0 746.49,-334.2 746.49,-746.48"
         style="fill:#1c2f46;fill-opacity:1;fill-rule:nonzero;stroke:none"
         id="path150" />
      <path
         d="m 2680.32,2888.77 c 0,-284.7 -80.74,-515.48 -180.33,-515.48 -99.59,0 -180.31,230.78 -180.31,515.48 0,284.71 80.72,515.49 180.31,515.49 99.59,0 180.33,-230.78 180.33,-515.49 z"
         style="fill:none;stroke:#ffffff;stroke-width:25.974;stroke-linecap:butt;stroke-linejoin:miter;stroke-miterlimit:10;stroke-dasharray:none;stroke-opacity:1"
         id="path152" />
      <path
         d="m 2627.5,2995.31 c 240.92,-201.31 379.14,-412.2 308.74,-471.03 -70.42,-58.85 -322.83,56.64 -563.76,257.96 -240.93,201.31 -379.14,412.19 -308.72,471.04 70.42,58.84 322.81,-56.65 563.74,-257.97 z"
         style="fill:none;stroke:#ffffff;stroke-width:25.974;stroke-linecap:butt;stroke-linejoin:miter;stroke-miterlimit:10;stroke-dasharray:none;stroke-opacity:1"
         id="path154" />
      <path
         d="m 2372.49,2995.31 c -240.91,-201.31 -379.15,-412.2 -308.73,-471.03 70.42,-58.85 322.81,56.64 563.74,257.96 240.92,201.31 379.15,412.19 308.74,471.04 -70.42,58.84 -322.81,-56.65 -563.75,-257.97 z"
         style="fill:none;stroke:#ffffff;stroke-width:25.974;stroke-linecap:butt;stroke-linejoin:miter;stroke-miterlimit:10;stroke-dasharray:none;stroke-opacity:1"
         id="path156" />
      <path
         d="m 2590.26,2888.79 c 0,-49.87 -40.4,-90.27 -90.27,-90.27 -49.86,0 -90.25,40.4 -90.25,90.27 0,49.84 40.39,90.25 90.25,90.25 49.87,0 90.27,-40.41 90.27,-90.25"
         style="fill:#fcca1e;fill-opacity:1;fill-rule:nonzero;stroke:none"
         id="path158" />
      <path
         d="m 2791.77,3237.34 c 0,-21.14 -17.14,-38.27 -38.28,-38.27 -21.12,0 -38.25,17.13 -38.25,38.27 0,21.13 17.13,38.27 38.25,38.27 21.14,0 38.28,-17.14 38.28,-38.27"
         style="fill:#ee256e;fill-opacity:1;fill-rule:nonzero;stroke:none"
         id="path160" />
      <path
         d="m 2170,3020.61 c 0,-21.14 -17.11,-38.27 -38.25,-38.27 -21.14,0 -38.29,17.13 -38.29,38.27 0,21.13 17.15,38.26 38.29,38.26 21.14,0 38.25,-17.13 38.25,-38.26"
         style="fill:#ee256e;fill-opacity:1;fill-rule:nonzero;stroke:none"
         id="path162" />
      <path
         d="m 2622.75,2433.42 c 0,-21.14 -17.12,-38.27 -38.26,-38.27 -21.13,0 -38.26,17.13 -38.26,38.27 0,21.13 17.13,38.26 38.26,38.26 21.14,0 38.26,-17.13 38.26,-38.26"
         style="fill:#ee256e;fill-opacity:1;fill-rule:nonzero;stroke:none"
         id="path164" />
      <path
         d="m 4382.83,1405.74 h -1486.7 c -5.82,0 -10.52,4.71 -10.52,10.52 v 537.14 c 0,5.8 4.7,10.54 10.52,10.54 h 1486.7 c 5.82,0 10.53,-4.74 10.53,-10.54 v -537.14 c 0,-5.81 -4.71,-10.52 -10.53,-10.52"
         style="fill:#e6eaea;fill-opacity:1;fill-rule:nonzero;stroke:none"
         id="path166" />
      <path
         d="M 4364.44,1424.87 H 2914.53 c -5.41,0 -9.8,4.38 -9.8,9.8 V 1935 c 0,5.41 4.39,9.8 9.8,9.8 h 1449.91 c 5.4,0 9.8,-4.39 9.8,-9.8 v -500.33 c 0,-5.42 -4.4,-9.8 -9.8,-9.8"
         style="fill:#2153aa;fill-opacity:1;fill-rule:nonzero;stroke:none"
         id="path168" />
      <path
         d="m 2885.61,1953.4 v -144.88 h 1507.75 v 144.88 c 0,5.8 -4.71,10.54 -10.53,10.54 h -1486.7 c -5.82,0 -10.52,-4.74 -10.52,-10.54"
         style="fill:#e6eaea;fill-opacity:1;fill-rule:nonzero;stroke:none"
         id="path170" />
      <path
         d="m 4190.03,1885.74 c 0,-10.28 -8.35,-18.62 -18.65,-18.62 -10.27,0 -18.61,8.34 -18.61,18.62 0,10.3 8.34,18.65 18.61,18.65 10.3,0 18.65,-8.35 18.65,-18.65"
         style="fill:#fcca1e;fill-opacity:1;fill-rule:nonzero;stroke:none"
         id="path172" />
      <path
         d="m 4263.51,1885.74 c 0,-10.28 -8.33,-18.62 -18.64,-18.62 -10.28,0 -18.62,8.34 -18.62,18.62 0,10.3 8.34,18.65 18.62,18.65 10.31,0 18.64,-8.35 18.64,-18.65"
         style="fill:#fcca1e;fill-opacity:1;fill-rule:nonzero;stroke:none"
         id="path174" />
      <path
         d="m 4336.97,1885.74 c 0,-10.28 -8.33,-18.62 -18.64,-18.62 -10.27,0 -18.6,8.34 -18.6,18.62 0,10.3 8.33,18.65 18.6,18.65 10.31,0 18.64,-8.35 18.64,-18.65"
         style="fill:#fcca1e;fill-opacity:1;fill-rule:nonzero;stroke:none"
         id="path176" />
      <path
         d="m 3702.39,1677.56 h -228.78 v 33.42 h 228.78 v -33.42"
         style="fill:#ee256e;fill-opacity:1;fill-rule:nonzero;stroke:none"
         id="path178" />
      <path
         d="m 4016.32,1677.56 h -257.97 v 33.42 h 257.97 v -33.42"
         style="fill:#5b73c1;fill-opacity:1;fill-rule:nonzero;stroke:none"
         id="path180" />
      <path
         d="m 4125.26,1603.1 h -366.91 v 33.42 h 366.91 v -33.42"
         style="fill:#5b73c1;fill-opacity:1;fill-rule:nonzero;stroke:none"
         id="path182" />
      <path
         d="m 4204.29,1677.56 h -132.01 v 33.42 h 132.01 v -33.42"
         style="fill:#223b6c;fill-opacity:1;fill-rule:nonzero;stroke:none"
         id="path184" />
      <path
         d="m 3702.39,1530.68 h -228.78 v 33.43 h 228.78 v -33.43"
         style="fill:#5b73c1;fill-opacity:1;fill-rule:nonzero;stroke:none"
         id="path186" />
      <path
         d="m 3974.58,1530.68 h -216.23 v 33.43 h 216.23 v -33.43"
         style="fill:#ee256e;fill-opacity:1;fill-rule:nonzero;stroke:none"
         id="path188" />
      <path
         d="m 4286,1530.68 h -269.68 v 33.43 H 4286 v -33.43"
         style="fill:#fcca1e;fill-opacity:1;fill-rule:nonzero;stroke:none"
         id="path190" />
      <path
         d="m 3702.39,1603.1 h -228.78 v 33.42 h 228.78 v -33.42"
         style="fill:#223b6c;fill-opacity:1;fill-rule:nonzero;stroke:none"
         id="path192" />
      <path
         d="m 3291.04,1542.47 78.46,78.52 -78.46,78.45"
         style="fill:none;stroke:#fcca1e;stroke-width:30;stroke-linecap:butt;stroke-linejoin:round;stroke-miterlimit:10;stroke-dasharray:none;stroke-opacity:1"
         id="path194" />
      <path
         d="m 3061.95,1542.47 -78.45,78.52 78.45,78.45"
         style="fill:none;stroke:#fcca1e;stroke-width:30;stroke-linecap:butt;stroke-linejoin:round;stroke-miterlimit:10;stroke-dasharray:none;stroke-opacity:1"
         id="path196" />
      <path
         d="m 3215.72,1699.44 -80.4,-164.73"
         style="fill:none;stroke:#fcca1e;stroke-width:30;stroke-linecap:butt;stroke-linejoin:round;stroke-miterlimit:10;stroke-dasharray:none;stroke-opacity:1"
         id="path198" />
      <path
         d="M 1315.59,1744.99 H 596.66 c -5.82,0 -10.527,4.71 -10.527,10.52 v 537.14 c 0,5.8 4.707,10.53 10.527,10.53 h 718.93 c 5.82,0 10.52,-4.73 10.52,-10.53 v -537.14 c 0,-5.81 -4.7,-10.52 -10.52,-10.52"
         style="fill:#e6eaea;fill-opacity:1;fill-rule:nonzero;stroke:none"
         id="path200" />
      <path
         d="M 1297.2,1764.12 H 615.063 c -5.418,0 -9.805,4.38 -9.805,9.8 v 500.33 c 0,5.41 4.387,9.8 9.805,9.8 H 1297.2 c 5.4,0 9.79,-4.39 9.79,-9.8 v -500.33 c 0,-5.42 -4.39,-9.8 -9.79,-9.8"
         style="fill:#2153aa;fill-opacity:1;fill-rule:nonzero;stroke:none"
         id="path202" />
      <path
         d="m 586.133,2292.65 v -144.89 h 739.977 v 144.89 c 0,5.8 -4.7,10.53 -10.52,10.53 H 596.66 c -5.82,0 -10.527,-4.73 -10.527,-10.53"
         style="fill:#e6eaea;fill-opacity:1;fill-rule:nonzero;stroke:none"
         id="path204" />
      <path
         d="m 1122.78,2224.99 c 0,-10.28 -8.35,-18.62 -18.65,-18.62 -10.26,0 -18.6,8.34 -18.6,18.62 0,10.3 8.34,18.65 18.6,18.65 10.3,0 18.65,-8.35 18.65,-18.65"
         style="fill:#fcca1e;fill-opacity:1;fill-rule:nonzero;stroke:none"
         id="path206" />
      <path
         d="m 1196.26,2224.99 c 0,-10.28 -8.33,-18.62 -18.63,-18.62 -10.29,0 -18.63,8.34 -18.63,18.62 0,10.3 8.34,18.65 18.63,18.65 10.3,0 18.63,-8.35 18.63,-18.65"
         style="fill:#fcca1e;fill-opacity:1;fill-rule:nonzero;stroke:none"
         id="path208" />
      <path
         d="m 1269.73,2224.99 c 0,-10.28 -8.33,-18.62 -18.65,-18.62 -10.27,0 -18.6,8.34 -18.6,18.62 0,10.3 8.33,18.65 18.6,18.65 10.32,0 18.65,-8.35 18.65,-18.65"
         style="fill:#fcca1e;fill-opacity:1;fill-rule:nonzero;stroke:none"
         id="path210" />
      <path
         d="M 949.07,2016.81 H 691.105 v 33.41 H 949.07 v -33.41"
         style="fill:#5b73c1;fill-opacity:1;fill-rule:nonzero;stroke:none"
         id="path212" />
      <path
         d="M 1058.02,1942.34 H 691.105 v 33.43 h 366.915 v -33.43"
         style="fill:#5b73c1;fill-opacity:1;fill-rule:nonzero;stroke:none"
         id="path214" />
      <path
         d="m 1137.04,2016.81 h -132.01 v 33.41 h 132.01 v -33.41"
         style="fill:#223b6c;fill-opacity:1;fill-rule:nonzero;stroke:none"
         id="path216" />
      <path
         d="M 907.336,1869.93 H 691.105 v 33.43 h 216.231 v -33.43"
         style="fill:#ee256e;fill-opacity:1;fill-rule:nonzero;stroke:none"
         id="path218" />
      <path
         d="M 1218.75,1869.93 H 949.07 v 33.43 h 269.68 v -33.43"
         style="fill:#fcca1e;fill-opacity:1;fill-rule:nonzero;stroke:none"
         id="path220" />
      <path
         d="m 2441.31,3731.64 h -521.37 c -5.64,0 -10.22,4.57 -10.22,10.21 v 521.37 c 0,5.64 4.58,10.24 10.22,10.24 h 521.37 c 5.65,0 10.22,-4.6 10.22,-10.24 v -521.37 c 0,-5.64 -4.57,-10.21 -10.22,-10.21"
         style="fill:#e6eaea;fill-opacity:1;fill-rule:nonzero;stroke:none"
         id="path222" />
      <path
         d="m 2420.38,3753.37 h -479.51 c -5.19,0 -9.39,4.23 -9.39,9.4 v 479.53 c 0,5.18 4.2,9.4 9.39,9.4 h 479.51 c 5.2,0 9.39,-4.22 9.39,-9.4 v -479.53 c 0,-5.17 -4.19,-9.4 -9.39,-9.4"
         style="fill:#2153aa;fill-opacity:1;fill-rule:nonzero;stroke:none"
         id="path224" />
      <path
         d="m 1909.72,4263.22 v -140.63 h 541.81 v 140.63 c 0,5.64 -4.57,10.24 -10.22,10.24 h -521.37 c -5.64,0 -10.22,-4.6 -10.22,-10.24"
         style="fill:#e6eaea;fill-opacity:1;fill-rule:nonzero;stroke:none"
         id="path226" />
      <path
         d="m 2254.17,4197.54 c 0,-9.96 -8.12,-18.07 -18.11,-18.07 -9.97,0 -18.09,8.11 -18.09,18.07 0,10 8.12,18.11 18.09,18.11 9.99,0 18.11,-8.11 18.11,-18.11"
         style="fill:#fcca1e;fill-opacity:1;fill-rule:nonzero;stroke:none"
         id="path228" />
      <path
         d="m 2325.48,4197.54 c 0,-9.96 -8.09,-18.07 -18.08,-18.07 -9.99,0 -18.08,8.11 -18.08,18.07 0,10 8.09,18.11 18.08,18.11 9.99,0 18.08,-8.11 18.08,-18.11"
         style="fill:#fcca1e;fill-opacity:1;fill-rule:nonzero;stroke:none"
         id="path230" />
      <path
         d="m 2396.81,4197.54 c 0,-9.96 -8.09,-18.07 -18.1,-18.07 -9.98,0 -18.07,8.11 -18.07,18.07 0,10 8.09,18.11 18.07,18.11 10.01,0 18.1,-8.11 18.1,-18.11"
         style="fill:#fcca1e;fill-opacity:1;fill-rule:nonzero;stroke:none"
         id="path232" />
      <path
         d="m 2274.3,3874.21 62.34,62.33 -62.34,62.34"
         style="fill:none;stroke:#fcca1e;stroke-width:27.0504;stroke-linecap:butt;stroke-linejoin:round;stroke-miterlimit:10;stroke-dasharray:none;stroke-opacity:1"
         id="path234" />
      <path
         d="m 2092.4,3874.21 -62.32,62.33 62.32,62.34"
         style="fill:none;stroke:#fcca1e;stroke-width:27.0504;stroke-linecap:butt;stroke-linejoin:round;stroke-miterlimit:10;stroke-dasharray:none;stroke-opacity:1"
         id="path236" />
      <path
         d="m 2214.49,3998.88 -63.84,-130.83"
         style="fill:none;stroke:#fcca1e;stroke-width:27.0504;stroke-linecap:butt;stroke-linejoin:round;stroke-miterlimit:10;stroke-dasharray:none;stroke-opacity:1"
         id="path238" />
    </g>
  </g>
</svg>
